<svg width="157" height="43" viewBox="0 0 157 43" fill="none" xmlns="http://www.w3.org/2000/svg">
<path d="M10.096 7.14091L20.7121 0.975586L31.3567 7.12099V18.6669L41.4233 24.3081V36.7236L30.6092 42.6725L20.7163 37.1963L10.7744 42.6091L0 36.7322V24.3014L9.88104 18.6143L10.096 7.14091Z" fill="#FD8447"/>
<path fill-rule="evenodd" clip-rule="evenodd" d="M15.3995 3.96288C12.5927 5.57903 10.2219 6.97535 10.1313 7.06584C9.96988 7.22692 9.96546 7.3512 9.92548 12.9197L9.8846 18.609L5.10174 21.3622C2.47116 22.8765 0.254525 24.1932 0.175792 24.2884C0.0423623 24.4498 0.0327148 24.8704 0.0327148 30.5225C0.0327148 36.1766 0.0423623 36.5948 0.175792 36.7515C0.254444 36.8439 2.62879 38.2479 5.45199 39.8715C9.9765 42.4735 10.6163 42.8184 10.848 42.78C10.9927 42.7559 13.2556 41.4989 15.8767 39.9867C18.6966 38.3597 20.6995 37.252 20.7822 37.2737C20.8591 37.294 23.0375 38.5313 25.6231 40.0235C28.2087 41.5156 30.4423 42.756 30.5867 42.78C30.8179 42.8182 31.462 42.471 35.9828 39.8708C38.8062 38.2468 41.1807 36.8428 41.2594 36.7508C41.3929 36.5947 41.4025 36.1768 41.4025 30.5225C41.4025 24.8704 41.3928 24.4498 41.2594 24.2884C41.1807 24.1932 38.964 22.8765 36.3334 21.3622L31.5506 18.609L31.5097 12.9197C31.4697 7.3512 31.4653 7.22692 31.3039 7.06584C31.0014 6.76401 20.9441 1.02441 20.7176 1.02441C20.5842 1.02441 18.5695 2.13767 15.3995 3.96288ZM16.6282 5.1468C14.4058 6.42684 12.5573 7.50419 12.5204 7.541C12.4534 7.60791 15.5909 9.45882 15.7623 9.45352C15.886 9.44968 23.9886 4.77373 23.9855 4.70796C23.9831 4.6568 20.799 2.81959 20.7126 2.81959C20.6886 2.81959 18.8506 3.86684 16.6282 5.1468ZM21.5891 8.03108C19.3481 9.32467 17.5179 10.4162 17.5222 10.4569C17.5266 10.4975 18.2471 10.9442 19.1233 11.4498L20.7165 12.3688L24.8525 9.98472C28.5648 7.84487 28.9731 7.58939 28.8387 7.49122C28.6542 7.35626 25.7411 5.67483 25.6963 5.67736C25.6785 5.67842 23.8303 6.73757 21.5891 8.03108ZM11.5804 13.8008L11.6015 18.5804L15.6894 20.9392C17.9378 22.2364 19.8049 23.2985 19.8387 23.2994C19.8725 23.3002 19.9 21.1606 19.9 18.5446V13.7882L19.4708 13.5409C19.2347 13.4048 18.1769 12.796 17.1202 12.1879C16.0635 11.5799 14.3955 10.6186 13.4134 10.0517C12.4314 9.48493 11.6125 9.02112 11.5936 9.02112C11.5748 9.02112 11.5688 11.172 11.5804 13.8008ZM25.6435 11.4121L21.5352 13.7894V18.5452C21.5352 21.1609 21.5627 23.3002 21.5965 23.2994C21.6303 23.2985 23.4974 22.2364 25.7457 20.9392L29.8337 18.5804L29.8547 13.8008C29.8664 11.172 29.848 9.02414 29.8139 9.02789C29.7798 9.03157 27.9031 10.1044 25.6435 11.4121ZM6.61852 22.3708C4.4175 23.6451 2.58938 24.7154 2.55611 24.7492C2.4983 24.8078 5.72195 26.7025 5.82979 26.6731C5.97557 26.6335 13.9755 21.9864 13.9942 21.9305C14.0218 21.8478 10.8825 20.034 10.7318 20.0455C10.6705 20.0501 8.81954 21.0966 6.61852 22.3708ZM26.5031 22.3841C24.2667 23.6738 22.4363 24.7511 22.4357 24.7781C22.434 24.8473 25.5808 26.6465 25.7035 26.6465C25.8167 26.6465 33.9611 21.9773 33.9585 21.9138C33.9562 21.8531 30.8367 20.081 30.6929 20.0585C30.625 20.048 28.7396 21.0945 26.5031 22.3841ZM11.6424 25.2269C9.41654 26.5104 7.56798 27.586 7.53454 27.6171C7.47207 27.6752 10.6333 29.5328 10.7826 29.5257C10.8963 29.5203 18.9548 24.863 18.9795 24.7885C18.9984 24.7316 15.9676 22.9554 15.78 22.9135C15.7302 22.9024 13.8683 23.9435 11.6424 25.2269ZM31.5164 25.2446C29.2943 26.5318 27.4848 27.6216 27.4954 27.6665C27.506 27.7114 28.2204 28.1571 29.0829 28.657L30.6512 29.5657L31.1082 29.3097C31.3595 29.1689 33.2243 28.099 35.2523 26.9321C37.9886 25.3577 38.9144 24.7876 38.8424 24.7215C38.6909 24.5826 35.7121 22.8922 35.6299 22.8986C35.5897 22.9018 33.7386 23.9574 31.5164 25.2446ZM1.68767 31.0244L1.70876 35.8166L5.78687 38.1675C8.02983 39.4605 9.87888 40.5184 9.89588 40.5184C9.91289 40.5184 9.9173 38.3663 9.90569 35.7359L9.8846 30.9534L7.75888 29.73C6.58974 29.057 4.82376 28.0384 3.83448 27.4663C2.8452 26.8943 1.95273 26.3825 1.85119 26.3292L1.66657 26.2321L1.68767 31.0244ZM15.669 28.6285L11.5606 31.0059V35.7708C11.5606 39.9698 11.5752 40.5303 11.6831 40.4889C11.7505 40.4631 13.6268 39.3911 15.8528 38.1068L19.9 35.7716V31.005C19.9 28.3834 19.8725 26.2414 19.8387 26.2448C19.8049 26.2482 17.9286 27.3209 15.669 28.6285ZM21.5352 31.005V35.7716L25.5824 38.1068C27.8083 39.3911 29.6847 40.4631 29.7521 40.4889C29.86 40.5303 29.8745 39.97 29.8745 35.7732C29.8745 31.3255 29.865 31.0046 29.7315 30.9218C29.6528 30.873 28.595 30.2627 27.3809 29.5656C26.1668 28.8685 24.3707 27.8347 23.3895 27.2683C22.4084 26.7019 21.5898 26.2385 21.5704 26.2385C21.551 26.2385 21.5352 28.3834 21.5352 31.005ZM35.6385 28.5967L31.5506 30.9525L31.5295 35.7354C31.5179 38.366 31.5222 40.5184 31.539 40.5184C31.5915 40.5184 39.628 35.8757 39.7002 35.8036C39.7379 35.766 39.7591 33.5991 39.7475 30.9882L39.7264 26.241L35.6385 28.5967ZM38.0724 33.6398C37.7932 33.6937 37.5598 34.0469 37.5598 34.4157C37.5598 34.6624 37.6155 34.793 37.7988 34.9759C38.4624 35.6382 39.4319 34.8422 38.993 33.9952C38.8913 33.7989 38.4732 33.5553 38.3039 33.5935C38.2768 33.5997 38.1727 33.6205 38.0724 33.6398ZM35.8838 34.7972C35.2039 35.1017 32.8124 36.5419 32.655 36.7416C32.4099 37.0528 32.4401 37.4611 32.7298 37.7503C33.1461 38.1658 33.3578 38.1075 35.1331 37.0888C35.9956 36.5938 36.7842 36.096 36.8853 35.9827C37.1465 35.6901 37.1298 35.2811 36.8444 34.9788C36.55 34.6668 36.2862 34.617 35.8838 34.7972Z" fill="white"/>
<path d="M50.4347 17.8789V6.24254H55.0256C55.9044 6.24254 56.6544 6.39974 57.2756 6.71413C57.9006 7.02474 58.376 7.46603 58.7017 8.038C59.0313 8.60618 59.1961 9.27474 59.1961 10.0437C59.1961 10.8164 59.0294 11.4812 58.6961 12.038C58.3627 12.591 57.8798 13.0153 57.2472 13.3107C56.6184 13.6062 55.8571 13.7539 54.9631 13.7539H51.8892V11.7766H54.5654C55.0351 11.7766 55.4252 11.7122 55.7358 11.5835C56.0464 11.4547 56.2775 11.2615 56.429 11.0039C56.5843 10.7463 56.662 10.4263 56.662 10.0437C56.662 9.65732 56.5843 9.33156 56.429 9.06641C56.2775 8.80125 56.0446 8.6005 55.7302 8.46413C55.4196 8.32398 55.0275 8.25391 54.554 8.25391H52.8949V17.8789H50.4347ZM56.7188 12.5835L59.6108 17.8789H56.8949L54.0654 12.5835H56.7188ZM60.9347 17.8789V6.24254H68.7756V8.27095H63.3949V11.0437H68.3722V13.0721H63.3949V15.8505H68.7983V17.8789H60.9347ZM70.7316 17.8789V6.24254H73.1918V15.8505H78.1804V17.8789H70.7316ZM90.0498 12.0607C90.0498 13.3297 89.8092 14.4092 89.3282 15.2994C88.8509 16.1895 88.1994 16.8694 87.3736 17.3391C86.5517 17.805 85.6274 18.038 84.6009 18.038C83.5668 18.038 82.6388 17.8031 81.8168 17.3335C80.9948 16.8638 80.3452 16.1838 79.8679 15.2937C79.3907 14.4035 79.152 13.3259 79.152 12.0607C79.152 10.7918 79.3907 9.71224 79.8679 8.82209C80.3452 7.93194 80.9948 7.25391 81.8168 6.788C82.6388 6.3183 83.5668 6.08345 84.6009 6.08345C85.6274 6.08345 86.5517 6.3183 87.3736 6.788C88.1994 7.25391 88.8509 7.93194 89.3282 8.82209C89.8092 9.71224 90.0498 10.7918 90.0498 12.0607ZM87.5554 12.0607C87.5554 11.2388 87.4323 10.5456 87.1861 9.98118C86.9437 9.41679 86.6009 8.98875 86.1577 8.69709C85.7145 8.40542 85.1956 8.25959 84.6009 8.25959C84.0062 8.25959 83.4873 8.40542 83.0441 8.69709C82.6009 8.98875 82.2562 9.41679 82.01 9.98118C81.7676 10.5456 81.6464 11.2388 81.6464 12.0607C81.6464 12.8827 81.7676 13.5759 82.01 14.1403C82.2562 14.7047 82.6009 15.1327 83.0441 15.4244C83.4873 15.716 84.0062 15.8619 84.6009 15.8619C85.1956 15.8619 85.7145 15.716 86.1577 15.4244C86.6009 15.1327 86.9437 14.7047 87.1861 14.1403C87.4323 13.5759 87.5554 12.8827 87.5554 12.0607ZM102.139 10.3164H99.6506C99.6052 9.99444 99.5124 9.70845 99.3722 9.45845C99.2321 9.20466 99.0521 8.98875 98.8324 8.81072C98.6127 8.63269 98.3589 8.49633 98.0711 8.40163C97.787 8.30694 97.4783 8.25959 97.1449 8.25959C96.5427 8.25959 96.018 8.40921 95.5711 8.70845C95.1241 9.00391 94.7775 9.43572 94.5313 10.0039C94.2851 10.5683 94.162 11.2539 94.162 12.0607C94.162 12.8903 94.2851 13.5872 94.5313 14.1516C94.7813 14.716 95.1298 15.1422 95.5767 15.43C96.0237 15.7179 96.5408 15.8619 97.1279 15.8619C97.4574 15.8619 97.7624 15.8183 98.0427 15.7312C98.3267 15.6441 98.5786 15.5172 98.7983 15.3505C99.018 15.18 99.1999 14.9736 99.3438 14.7312C99.4915 14.4888 99.5938 14.2122 99.6506 13.9016L102.139 13.913C102.075 14.4471 101.914 14.9622 101.656 15.4585C101.403 15.9509 101.06 16.3922 100.628 16.7823C100.2 17.1687 99.6885 17.4755 99.0938 17.7028C98.5029 17.9263 97.8343 18.038 97.0881 18.038C96.0502 18.038 95.1222 17.8031 94.304 17.3335C93.4896 16.8638 92.8457 16.1838 92.3722 15.2937C91.9025 14.4035 91.6677 13.3259 91.6677 12.0607C91.6677 10.7918 91.9063 9.71224 92.3836 8.82209C92.8608 7.93194 93.5086 7.25391 94.3267 6.788C95.1449 6.3183 96.0654 6.08345 97.0881 6.08345C97.7624 6.08345 98.3874 6.17815 98.9631 6.36754C99.5427 6.55694 100.056 6.83345 100.503 7.19709C100.95 7.55694 101.313 7.99822 101.594 8.52095C101.878 9.04368 102.06 9.64216 102.139 10.3164ZM105.69 17.8789H103.054L107.071 6.24254H110.242L114.253 17.8789H111.617L108.702 8.90163H108.611L105.69 17.8789ZM105.526 13.305H111.753V15.2255H105.526V13.305ZM113.788 8.27095V6.24254H123.345V8.27095H119.783V17.8789H117.351V8.27095H113.788ZM127.379 6.24254V17.8789H124.919V6.24254H127.379ZM140.097 12.0607C140.097 13.3297 139.856 14.4092 139.375 15.2994C138.898 16.1895 138.246 16.8694 137.42 17.3391C136.599 17.805 135.674 18.038 134.648 18.038C133.614 18.038 132.686 17.8031 131.864 17.3335C131.042 16.8638 130.392 16.1838 129.915 15.2937C129.438 14.4035 129.199 13.3259 129.199 12.0607C129.199 10.7918 129.438 9.71224 129.915 8.82209C130.392 7.93194 131.042 7.25391 131.864 6.788C132.686 6.3183 133.614 6.08345 134.648 6.08345C135.674 6.08345 136.599 6.3183 137.42 6.788C138.246 7.25391 138.898 7.93194 139.375 8.82209C139.856 9.71224 140.097 10.7918 140.097 12.0607ZM137.602 12.0607C137.602 11.2388 137.479 10.5456 137.233 9.98118C136.991 9.41679 136.648 8.98875 136.205 8.69709C135.761 8.40542 135.242 8.25959 134.648 8.25959C134.053 8.25959 133.534 8.40542 133.091 8.69709C132.648 8.98875 132.303 9.41679 132.057 9.98118C131.814 10.5456 131.693 11.2388 131.693 12.0607C131.693 12.8827 131.814 13.5759 132.057 14.1403C132.303 14.7047 132.648 15.1327 133.091 15.4244C133.534 15.716 134.053 15.8619 134.648 15.8619C135.242 15.8619 135.761 15.716 136.205 15.4244C136.648 15.1327 136.991 14.7047 137.233 14.1403C137.479 13.5759 137.602 12.8827 137.602 12.0607ZM151.652 6.24254V17.8789H149.527L144.465 10.555H144.379V17.8789H141.919V6.24254H144.078L149.101 13.5607H149.203V6.24254H151.652ZM56.7472 28.5891C56.7017 28.1308 56.5067 27.7747 56.162 27.521C55.8173 27.2672 55.3495 27.1403 54.7586 27.1403C54.3571 27.1403 54.018 27.1971 53.7415 27.3107C53.465 27.4206 53.2529 27.574 53.1052 27.771C52.9612 27.9679 52.8892 28.1914 52.8892 28.4414C52.8817 28.6497 52.9252 28.8316 53.0199 28.9869C53.1184 29.1422 53.2529 29.2766 53.4233 29.3903C53.5938 29.5001 53.7908 29.5967 54.0142 29.68C54.2377 29.7596 54.4764 29.8278 54.7302 29.8846L55.7756 30.1346C56.2832 30.2482 56.7491 30.3997 57.1733 30.5891C57.5976 30.7785 57.965 31.0115 58.2756 31.288C58.5862 31.5645 58.8267 31.8903 58.9972 32.2653C59.1714 32.6403 59.2605 33.0702 59.2642 33.555C59.2605 34.2672 59.0786 34.8846 58.7188 35.4073C58.3627 35.9263 57.8476 36.3297 57.1733 36.6175C56.5029 36.9016 55.6942 37.0437 54.7472 37.0437C53.8078 37.0437 52.9896 36.8997 52.2927 36.6119C51.5995 36.324 51.0578 35.8978 50.6677 35.3335C50.2813 34.7653 50.0786 34.0626 50.0597 33.2255H52.4404C52.4669 33.6156 52.5786 33.9414 52.7756 34.2028C52.9764 34.4603 53.2434 34.6554 53.5767 34.788C53.9139 34.9168 54.2946 34.9812 54.7188 34.9812C55.1355 34.9812 55.4972 34.9206 55.804 34.7994C56.1146 34.6781 56.3552 34.5096 56.5256 34.2937C56.6961 34.0778 56.7813 33.8297 56.7813 33.5494C56.7813 33.288 56.7036 33.0683 56.5483 32.8903C56.3968 32.7122 56.1733 32.5607 55.8779 32.4357C55.5862 32.3107 55.2283 32.1971 54.804 32.0948L53.537 31.7766C52.5559 31.538 51.7813 31.1649 51.2131 30.6573C50.6449 30.1497 50.3627 29.466 50.3665 28.6062C50.3627 27.9016 50.5502 27.2861 50.929 26.7596C51.3116 26.2331 51.8362 25.8221 52.5029 25.5266C53.1696 25.2312 53.9271 25.0835 54.7756 25.0835C55.6392 25.0835 56.393 25.2312 57.037 25.5266C57.6847 25.8221 58.1885 26.2331 58.5483 26.7596C58.9082 27.2861 59.0938 27.896 59.1052 28.5891H56.7472ZM60.9191 36.8789V25.2425H63.3793V30.0437H68.3736V25.2425H70.8282V36.8789H68.3736V32.0721H63.3793V36.8789H60.9191ZM75.3168 25.2425V36.8789H72.8566V25.2425H75.3168ZM77.341 36.8789V25.2425H85.0455V27.271H79.8012V30.0437H84.5341V32.0721H79.8012V36.8789H77.341ZM86.2571 27.271V25.2425H95.814V27.271H92.2515V36.8789H89.8196V27.271H86.2571ZM99.8481 25.2425V36.8789H97.3878V25.2425H99.8481ZM111.605 25.2425V36.8789H109.48L104.418 29.555H104.332V36.8789H101.872V25.2425H104.031L109.054 32.5607H109.156V25.2425H111.605ZM121.354 29.0039C121.274 28.7274 121.162 28.4831 121.019 28.271C120.875 28.055 120.698 27.8732 120.49 27.7255C120.286 27.574 120.051 27.4585 119.786 27.3789C119.524 27.2994 119.234 27.2596 118.916 27.2596C118.322 27.2596 117.799 27.4073 117.348 27.7028C116.901 27.9982 116.553 28.4281 116.303 28.9925C116.053 29.5531 115.928 30.2388 115.928 31.0494C115.928 31.86 116.051 32.5494 116.297 33.1175C116.543 33.6857 116.892 34.1194 117.342 34.4187C117.793 34.7141 118.325 34.8619 118.939 34.8619C119.496 34.8619 119.971 34.7634 120.365 34.5664C120.763 34.3656 121.066 34.0835 121.274 33.7198C121.486 33.3562 121.592 32.9263 121.592 32.43L122.092 32.5039H119.092V30.6516H123.962V32.1175C123.962 33.1403 123.746 34.0191 123.314 34.7539C122.882 35.485 122.287 36.0494 121.53 36.4471C120.772 36.841 119.905 37.038 118.928 37.038C117.837 37.038 116.878 36.7975 116.053 36.3164C115.227 35.8316 114.583 35.1441 114.121 34.2539C113.662 33.36 113.433 32.2994 113.433 31.0721C113.433 30.1289 113.57 29.288 113.842 28.5494C114.119 27.8069 114.505 27.1781 115.001 26.663C115.498 26.1478 116.075 25.7558 116.734 25.4869C117.394 25.2179 118.108 25.0835 118.876 25.0835C119.536 25.0835 120.149 25.18 120.717 25.3732C121.286 25.5626 121.789 25.8316 122.229 26.18C122.672 26.5285 123.034 26.9433 123.314 27.4244C123.594 27.9016 123.774 28.4281 123.854 29.0039H121.354Z" fill="black"/>
</svg>
