<svg width="30" height="30" viewBox="0 0 30 30" fill="none" xmlns="http://www.w3.org/2000/svg">
<path d="M21.6282 25.9998C20.6695 25.9998 19.3227 25.6531 17.3059 24.5266C14.8535 23.1516 12.9566 21.8821 10.5174 19.4498C8.16572 17.1 7.02129 15.5787 5.41958 12.6646C3.6101 9.37439 3.91855 7.64972 4.26336 6.91262C4.67398 6.03162 5.28008 5.5047 6.0635 4.9817C6.50848 4.69021 6.97937 4.44034 7.47022 4.23526C7.51933 4.21415 7.56501 4.19401 7.60578 4.17584C7.84891 4.06633 8.21729 3.90084 8.6839 4.07763C8.99531 4.1945 9.27331 4.43366 9.70849 4.86335C10.6009 5.74336 11.8205 7.70325 12.2704 8.66576C12.5725 9.31447 12.7724 9.74269 12.7729 10.223C12.7729 10.7853 12.49 11.2189 12.1467 11.6869C12.0823 11.7748 12.0185 11.8587 11.9566 11.9403C11.5828 12.4313 11.5008 12.5733 11.5548 12.8267C11.6643 13.3359 12.4812 14.8519 13.8235 16.191C15.1659 17.5302 16.6384 18.2953 17.1497 18.4043C17.414 18.4608 17.5589 18.3753 18.0658 17.9884C18.1385 17.9329 18.2131 17.8754 18.2912 17.818C18.8148 17.4285 19.2284 17.1531 19.7775 17.1531H19.7805C20.2584 17.1531 20.6675 17.3603 21.3453 17.7021C22.2294 18.148 24.2486 19.3516 25.1342 20.2449C25.565 20.679 25.8052 20.956 25.9226 21.2668C26.0994 21.7348 25.9329 22.1016 25.8243 22.3472C25.8062 22.3879 25.786 22.4326 25.7649 22.4822C25.5581 22.9721 25.3068 23.4419 25.0139 23.8857C24.4918 24.6665 23.9628 25.271 23.0797 25.6821C22.6262 25.8966 22.1299 26.0052 21.6282 25.9998Z" fill="white"/>
</svg>
